<?xml version="1.0" encoding="UTF-8" standalone="no"?><svg xmlns="http://www.w3.org/2000/svg" xmlns:hds="http://netkernel.org/hds" preserveAspectRatio="x200Y200 meet" viewBox="0 0 1560 300" height="40%" version="1.1" width="100%"><style type="text/css">svg { font-family:Verdana,Helvetica,sans-serif; }
 .s { width: 8px; height: 8px; background: #888;}

.cl-noshade { stroke:#000;stroke-width:1;fill:none; }
.cl-noshade .cl-start, .cl-noshade polygon, .cl-noshade circle, .cl-noshade .cl-startep2 { fill:#000;stroke:none; }


.cl { stroke:#666;stroke-width:2;fill:none; }
.cl-start, .cl polygon, .cl circle { fill:#666;stroke:none; }
.cl-startep1, .cl-startep2 { fill: none; stroke: none; }
.cl ellipse { stroke:#666;stroke-width:2;fill:none; }

.cl:hover { stroke:rgb(255,0,0);stroke-width:2;fill:none; }
.cl:hover .cl-start, .cl:hover polygon, .cl:hover circle { fill:rgb(255,0,0); }
.cl:hover .cl-startep1, .cl:hover .cl-startep2 { fill: rgb(255,0,0); stroke: none; }
.clunder { stroke:#FFF;stroke-width:5;fill:none; opacity:0.5}
.ep { fill:#000;fill-opacity:0.05;stroke:none;}
.eplinked { fill:#000; fill-opacity: 0.15; stroke:none;}
.ep-noshade { fill:none; stroke:none;}
.eptransport { fill:#F88;fill-opacity:1;stroke:none;}
.module { fill:#EEE;fill-opacity:0.66;stroke:#000;stroke-width:1;}
.module-noshade { fill:none;stroke:#000;stroke-width:1;}
.nspace { fill: #FFF; fill-rule:evenodd; stroke:#000;stroke-width:1; }
.rspace { fill:#FFF; fill-rule:evenodd;stroke:#000;stroke-width:1; }
.space { fill: #FFF; fill-rule:evenodd; stroke:#000;stroke-width:1; }
.lspace { fill: #DDD; fill-rule:evenodd;stroke:#000;stroke-width:1; }
.pspace { fill: #F88; fill-rule:evenodd;stroke:#000;stroke-width:1; }</style><filter height="150%" id="fga10-i1" width="150%"><feOffset dx="2" dy="2" in="SourceAlpha" result="offOut"/><feGaussianBlur in="offOut" result="blurOut" stdDeviation="3"/><feBlend in="SourceGraphic" in2="blurOut" mode="normal"/></filter><filter id="fga10-i2"><feMorphology in="SourceAlpha" operator="dilate" radius="1" result="dilateOut"/><feGaussianBlur in="dilateOut" result="blurOut" stdDeviation="1"/><feColorMatrix in="blurOut" type="matrix" values="0 0 0 0 1   0 0 0 0 1   0 0 0 0 1   0 0 0 0.75 0"/></filter><filter id="fga10-i4" x="-5%" y="-5%"><feOffset dx="2" dy="2" in="SourceAlpha" result="offOut"/><feGaussianBlur in="offOut" result="result1" stdDeviation="3"/><feColorMatrix in="SourceAlpha" result="result2" type="matrix" values="0 0 0 0 0 0 0 0 0 0 0 0 0 0 0 0 0 0 -1.5 1"/><feComposite in="result1" in2="result2" k1="1.0" k2="0.0" k3="0.0" k4="0.0" operator="arithmetic"/></filter><g transform="scale(1.0 1.0)  translate(-15.0, 192.5)"><g transform="translate(50.00 -22.50)"><g filter="url(#fga10-i1)"><path class="rspace cmSpace" d="m 101.0092879256966,13.227822580645164 c 15.91,-18.20 -20.29,-17.54 -32.95,-13.77 -12.76,-6.08 -29.99,-5.62 -36.40,0.46 -10.12,-5.52 -41.18,-6.30 -35.02,10.11 -12.76,4.03 -12.48,19.56 3.19,24.24 -9.65,16.25 17.44,18.45 31.00,12.14 3.92,7.05 34.95,10.72 41.51,-0.83 15.91,6.06 48.24,-3.18 28.34,-12.14 14.27,-5.75 19.40,-16.15 0.33,-20.20 l 0.0,0.0 z" entity="da/s" style="fill-opacity: 1.0"/></g></g><g transform="translate(221.15 -31.50)"><g filter="url(#fga10-i1)"><path class="space cmSpace" d="m 101.0092879256966,18.51895161290323 c 15.91,-25.48 -20.29,-24.56 -32.95,-19.28 -12.76,-8.51 -29.99,-7.86 -36.40,0.65 -10.12,-7.72 -41.18,-8.81 -35.02,14.15 -12.76,5.64 -12.48,27.38 3.19,33.94 -9.65,22.75 17.44,25.84 31.00,16.99 3.92,9.87 34.95,15.01 41.51,-1.17 15.91,8.48 48.24,-4.45 28.34,-16.99 14.27,-8.05 19.40,-22.61 0.33,-28.27 l 0.0,0.0 z" entity="da/n" style="fill-opacity: 1.0"/></g></g><g transform="translate(391.66 -20.00)"><g filter="url(#fga10-i1)"><path class="space cmSpace" d="m 101.0092879256966,11.758064516129032 c 15.91,-16.18 -20.29,-15.59 -32.95,-12.24 -12.76,-5.40 -29.99,-4.99 -36.40,0.41 -10.12,-4.90 -41.18,-5.60 -35.02,8.98 -12.76,3.58 -12.48,17.39 3.19,21.55 -9.65,14.45 17.44,16.40 31.00,10.79 3.92,6.27 34.95,9.53 41.51,-0.74 15.91,5.39 48.24,-2.82 28.34,-10.79 14.27,-5.11 19.40,-14.35 0.33,-17.95 l 0.0,0.0 z" entity="fo/G" style="fill-opacity: 1.0"/></g></g><g transform="translate(558.70 -40.50)"><g filter="url(#fga10-i1)"><path class="space cmSpace" d="m 101.0092879256966,23.810080645161293 c 15.91,-32.76 -20.29,-31.58 -32.95,-24.79 -12.76,-10.94 -29.99,-10.11 -36.40,0.83 -10.12,-9.93 -41.18,-11.33 -35.02,18.19 -12.76,7.25 -12.48,35.21 3.19,43.64 -9.65,29.26 17.44,33.22 31.00,21.85 3.92,12.69 34.95,19.30 41.51,-1.50 15.91,10.91 48.24,-5.72 28.34,-21.85 14.27,-10.35 19.40,-29.07 0.33,-36.35 l 0.0,0.0 z" entity="fo/S" style="fill-opacity: 1.0"/></g></g><g transform="translate(900.53 -105.00)"><g filter="url(#fga10-i1)"><path class="space cmSpace" d="m 101.0092879256966,11.758064516129032 c 15.91,-16.18 -20.29,-15.59 -32.95,-12.24 -12.76,-5.40 -29.99,-4.99 -36.40,0.41 -10.12,-4.90 -41.18,-5.60 -35.02,8.98 -12.76,3.58 -12.48,17.39 3.19,21.55 -9.65,14.45 17.44,16.40 31.00,10.79 3.92,6.27 34.95,9.53 41.51,-0.74 15.91,5.39 48.24,-2.82 28.34,-10.79 14.27,-5.11 19.40,-14.35 0.33,-17.95 l 0.0,0.0 z" entity="fo/9" style="fill-opacity: 1.0"/></g></g><g transform="translate(1070.69 -107.50)"><g filter="url(#fga10-i1)"><path class="space cmSpace" d="m 101.0092879256966,13.227822580645164 c 15.91,-18.20 -20.29,-17.54 -32.95,-13.77 -12.76,-6.08 -29.99,-5.62 -36.40,0.46 -10.12,-5.52 -41.18,-6.30 -35.02,10.11 -12.76,4.03 -12.48,19.56 3.19,24.24 -9.65,16.25 17.44,18.45 31.00,12.14 3.92,7.05 34.95,10.72 41.51,-0.83 15.91,6.06 48.24,-3.18 28.34,-12.14 14.27,-5.75 19.40,-16.15 0.33,-20.20 l 0.0,0.0 z" entity="fo/7" style="fill-opacity: 1.0"/></g></g><g transform="translate(1236.83 25.06)"><g filter="url(#fga10-i1)"><path class="space cmSpace" d="m 101.0092879256966,11.758064516129032 c 15.91,-16.18 -20.29,-15.59 -32.95,-12.24 -12.76,-5.40 -29.99,-4.99 -36.40,0.41 -10.12,-4.90 -41.18,-5.60 -35.02,8.98 -12.76,3.58 -12.48,17.39 3.19,21.55 -9.65,14.45 17.44,16.40 31.00,10.79 3.92,6.27 34.95,9.53 41.51,-0.74 15.91,5.39 48.24,-2.82 28.34,-10.79 14.27,-5.11 19.40,-14.35 0.33,-17.95 l 0.0,0.0 z" entity="fo/x" style="fill-opacity: 1.0"/></g></g><g transform="translate(1411.78 14.20)"><g filter="url(#fga10-i1)"><path class="space cmSpace" d="m 101.0092879256966,26.455645161290327 c 15.91,-36.40 -20.29,-35.09 -32.95,-27.54 -12.76,-12.16 -29.99,-11.24 -36.40,0.92 -10.12,-11.03 -41.18,-12.59 -35.02,20.21 -12.76,8.06 -12.48,39.12 3.19,48.48 -9.65,32.51 17.44,36.91 31.00,24.28 3.92,14.10 34.95,21.45 41.51,-1.67 15.91,12.12 48.24,-6.35 28.34,-24.28 14.27,-11.50 19.40,-32.30 0.33,-40.39 l 0.0,0.0 z" entity="fo/I" style="fill-opacity: 1.0"/></g></g><g transform="translate(898.09 65.00)"><g filter="url(#fga10-i1)"><path class="space cmSpace" d="m 101.0092879256966,11.758064516129032 c 15.91,-16.18 -20.29,-15.59 -32.95,-12.24 -12.76,-5.40 -29.99,-4.99 -36.40,0.41 -10.12,-4.90 -41.18,-5.60 -35.02,8.98 -12.76,3.58 -12.48,17.39 3.19,21.55 -9.65,14.45 17.44,16.40 31.00,10.79 3.92,6.27 34.95,9.53 41.51,-0.74 15.91,5.39 48.24,-2.82 28.34,-10.79 14.27,-5.11 19.40,-14.35 0.33,-17.95 l 0.0,0.0 z" entity="fo/8" style="fill-opacity: 1.0"/></g></g><g transform="translate(1070.49 58.00)"><g filter="url(#fga10-i1)"><path class="space cmSpace" d="m 101.0092879256966,15.873387096774195 c 15.91,-21.84 -20.29,-21.05 -32.95,-16.53 -12.76,-7.29 -29.99,-6.74 -36.40,0.55 -10.12,-6.62 -41.18,-7.56 -35.02,12.13 -12.76,4.83 -12.48,23.47 3.19,29.09 -9.65,19.50 17.44,22.14 31.00,14.57 3.92,8.46 34.95,12.87 41.51,-1.00 15.91,7.27 48.24,-3.81 28.34,-14.57 14.27,-6.90 19.40,-19.38 0.33,-24.23 l 0.0,0.0 z" entity="fo/t" style="fill-opacity: 1.0"/></g></g><g transform="translate(1243.63 147.44)"><g filter="url(#fga10-i1)"><path class="space cmSpace" d="m 101.0092879256966,11.758064516129032 c 15.91,-16.18 -20.29,-15.59 -32.95,-12.24 -12.76,-5.40 -29.99,-4.99 -36.40,0.41 -10.12,-4.90 -41.18,-5.60 -35.02,8.98 -12.76,3.58 -12.48,17.39 3.19,21.55 -9.65,14.45 17.44,16.40 31.00,10.79 3.92,6.27 34.95,9.53 41.51,-0.74 15.91,5.39 48.24,-2.82 28.34,-10.79 14.27,-5.11 19.40,-14.35 0.33,-17.95 l 0.0,0.0 z" entity="fo/u" style="fill-opacity: 1.0"/></g></g><g transform="translate(1407.63 117.97)"><g filter="url(#fga10-i1)"><path class="space cmSpace" d="m 101.0092879256966,29.101209677419355 c 15.91,-40.04 -20.29,-38.59 -32.95,-30.30 -12.76,-13.37 -29.99,-12.36 -36.40,1.01 -10.12,-12.14 -41.18,-13.85 -35.02,22.24 -12.76,8.86 -12.48,43.03 3.19,53.33 -9.65,35.76 17.44,40.60 31.00,26.71 3.92,15.51 34.95,23.59 41.51,-1.84 15.91,13.33 48.24,-6.99 28.34,-26.71 14.27,-12.65 19.40,-35.53 0.33,-44.43 l 0.0,0.0 z" entity="fo/h" style="fill-opacity: 1.0"/></g></g><g class="cl cmPhysical" entity="fo/S/gl"><rect class="cl-startep1" height="8.0" width="96.0" x="558.7027" y="-8.5"/><path class="cl-startep2" d="M 654.7027,-8.5 A 4.0,4.0 180 0,1 654.7027,-0.5 Z"/><path d="M 658.7027 -4.5 c 285.9625 0 285.9625 171.93835 567.925 171.93835"/><polygon points="1230.6277,167.43835,1222.6277,173.43835,1222.6277,161.43835"/></g><g class="cl cmPhysical" entity="fo/t/tU"><rect class="cl-startep1" height="8.0" width="96.0" x="1070.4877" y="81.0"/><path class="cl-startep2" d="M 1166.4877,81.0 A 4.0,4.0 180 0,1 1166.4877,89.0 Z"/><path d="M 1170.4877 85.0 c 82.438354 0 -22.29834 82.438354 56.140015 82.438354"/><polygon points="1230.6277,167.43835,1222.6277,173.43835,1222.6277,161.43835"/></g><g class="cl cmPhysical" entity="fo/9/MM"><rect class="cl-startep1" height="8.0" width="96.0" x="900.53174" y="-91.0"/><path class="cl-startep2" d="M 996.53174,-91.0 A 4.0,4.0 180 0,1 996.53174,-83.0 Z"/><path d="M 1000.53174 -87.0 c 2.0 0 55.155396 2.0 53.155396 2.0"/><polygon points="1057.6871,-85.0,1049.6871,-79.0,1049.6871,-91.0"/></g><g class="cl cmPhysical" entity="fo/G/MM"><rect class="cl-startep1" height="8.0" width="96.0" x="391.6572" y="-6.0"/><path class="cl-startep2" d="M 487.6572,-6.0 A 4.0,4.0 180 0,1 487.6572,2.0 Z"/><path d="M 491.6572 -2.0 c 2.0 0 52.0455 2.0 50.0455 2.0"/><polygon points="545.7027,0.0,537.7027,6.0,537.7027,-6.0"/></g><g class="cl cmPhysical" entity="fo/u/MM"><rect class="cl-startep1" height="8.0" width="96.0" x="1243.6277" y="161.43835"/><path class="cl-startep2" d="M 1339.6277,161.43835 A 4.0,4.0 180 0,1 1339.6277,169.43835 Z"/><path d="M 1343.6277 165.43835 c 2.0322876 0 48.973938 2.0322876 47.006226 2.0322876"/><polygon points="1394.6339,167.47064,1386.6339,173.47064,1386.6339,161.47064"/></g><g class="cl cmPhysical" entity="fo/7/tU"><rect class="cl-startep1" height="8.0" width="96.0" x="1070.6871" y="-84.5"/><path class="cl-startep2" d="M 1166.6871,-84.5 A 4.0,4.0 180 0,1 1166.6871,-76.5 Z"/><path d="M 1170.6871 -80.5 c 100.0 0 -46.861816 125.561646 49.138184 125.561646"/><polygon points="1223.8253,45.06165,1215.8253,51.06165,1215.8253,39.06165"/></g><g class="cl cmPhysical" entity="fo/S/MM"><rect class="cl-startep1" height="8.0" width="96.0" x="558.7027" y="-26.5"/><path class="cl-startep2" d="M 654.7027,-26.5 A 4.0,4.0 180 0,1 654.7027,-18.5 Z"/><path d="M 658.7027 -22.5 c 114.41452 0 114.41452 -62.5 224.82904 -62.5"/><polygon points="887.53174,-85.0,879.53174,-79.0,879.53174,-91.0"/></g><g class="cl cmPhysical" entity="fo/8/MM"><rect class="cl-startep1" height="8.0" width="96.0" x="898.085" y="79.0"/><path class="cl-startep2" d="M 994.085,79.0 A 4.0,4.0 180 0,1 994.085,87.0 Z"/><path d="M 998.085 83.0 c 2.0 0 57.40265 2.0 55.40265 2.0"/><polygon points="1057.4877,85.0,1049.4877,91.0,1049.4877,79.0"/></g><g class="cl cmPhysical" entity="fo/S/tU"><rect class="cl-startep1" height="8.0" width="96.0" x="558.7027" y="-17.5"/><path class="cl-startep2" d="M 654.7027,-17.5 A 4.0,4.0 180 0,1 654.7027,-9.5 Z"/><path d="M 658.7027 -13.5 c 113.19116 0 113.19116 98.5 222.38232 98.5"/><polygon points="885.085,85.0,877.085,91.0,877.085,79.0"/></g><g class="cl cmPhysical" entity="fo/x/MM"><rect class="cl-startep1" height="8.0" width="96.0" x="1236.8253" y="39.06165"/><path class="cl-startep2" d="M 1332.8253,39.06165 A 4.0,4.0 180 0,1 1332.8253,47.06165 Z"/><path d="M 1336.8253 43.06165 c 16.134373 0 45.824734 16.134373 57.959106 16.134373"/><polygon points="1398.7844,59.196022,1390.7844,65.19602,1390.7844,53.196022"/></g><g class="cl cmPhysical" entity="da/n/tU"><rect class="cl-startep1" height="8.0" width="96.0" x="221.15485" y="-8.5"/><path class="cl-startep2" d="M 317.15485,-8.5 A 4.0,4.0 180 0,1 317.15485,-0.5 Z"/><path d="M 321.15485 -4.5 c 4.5 0 53.00235 4.5 53.50235 4.5"/><polygon points="378.6572,0.0,370.6572,6.0,370.6572,-6.0"/></g><g class="cl cmPhysical" entity="fo/S/NO"><rect class="cl-startep1" height="8.0" width="96.0" x="558.7027" y="0.5"/><path class="cl-startep2" d="M 654.7027,0.5 A 4.0,4.0 180 0,1 654.7027,8.5 Z"/><path d="M 658.7027 4.5 c 282.5613 0 282.5613 40.56165 561.1226 40.56165"/><polygon points="1223.8253,45.06165,1215.8253,51.06165,1215.8253,39.06165"/></g><g class="cl cmPhysical" entity="fo/t/45"><rect class="cl-startep1" height="8.0" width="96.0" x="1070.4877" y="90.0"/><path class="cl-startep2" d="M 1166.4877,90.0 A 4.0,4.0 180 0,1 1166.4877,98.0 Z"/><path d="M 1170.4877 94.0 c 48.93835 0 4.399296 -48.93835 49.337646 -48.93835"/><polygon points="1223.8253,45.06165,1215.8253,51.06165,1215.8253,39.06165"/></g><g class="cl cmPhysical" entity="da/s/tU"><rect class="cl-startep1" height="8.0" width="96.0" x="50.0" y="0.5"/><path class="cl-startep2" d="M 146.0,0.5 A 4.0,4.0 180 0,1 146.0,8.5 Z"/><path d="M 150.0 4.5 c 4.5 0 53.654846 -4.5 54.154846 -4.5"/><polygon points="208.15485,0.0,200.15485,6.0,200.15485,-6.0"/></g><g transform="translate(50.00 -22.50)"><g><path class="rspace cmSpace" d="m 101.0092879256966,13.227822580645164 c 15.91,-18.20 -20.29,-17.54 -32.95,-13.77 -12.76,-6.08 -29.99,-5.62 -36.40,0.46 -10.12,-5.52 -41.18,-6.30 -35.02,10.11 -12.76,4.03 -12.48,19.56 3.19,24.24 -9.65,16.25 17.44,18.45 31.00,12.14 3.92,7.05 34.95,10.72 41.51,-0.83 15.91,6.06 48.24,-3.18 28.34,-12.14 14.27,-5.75 19.40,-16.15 0.33,-20.20 l 0.0,0.0 z" entity="da/s" style="fill-opacity: 0.5"/></g><g filter="url(#fga10-i2"><text font-size="10" font-weight="bold" text-anchor="middle" x="50.0" y="-2">+PKS Web front-end - </text><text font-size="10" font-weight="bold" text-anchor="middle" x="50.0" y="8">Development Space</text></g><text class="cmSpace" entity="da/s" font-size="10" font-weight="bold" text-anchor="middle" x="50.0" y="-2">+PKS Web front-end - </text><text class="cmSpace" entity="da/s" font-size="10" font-weight="bold" text-anchor="middle" x="50.0" y="8">Development Space</text><rect class="ep" height="8.0" width="96.0" x="0" y="14.0"/><text font-size="8" text-anchor="end" title="Fileset" x="95.0" y="20.0">Fileset</text><rect class="eplinked" height="8.0" width="96.0" x="0" y="23.0"/><path class="eplinked" d="M 96.0,23.0 A 4.0,4.0 180 0,1 96.0,31.0 Z"/><text font-size="8" text-anchor="end" title="MapperOverlay" x="95.0" y="29.0">MapperOverlay</text><rect class="ep" height="8.0" width="96.0" x="0" y="32.0"/><text font-size="8" text-anchor="end" title="Fileset" x="95.0" y="38.0">Fileset</text></g><g transform="translate(221.15 -31.50)"><g><path class="space cmSpace" d="m 101.0092879256966,18.51895161290323 c 15.91,-25.48 -20.29,-24.56 -32.95,-19.28 -12.76,-8.51 -29.99,-7.86 -36.40,0.65 -10.12,-7.72 -41.18,-8.81 -35.02,14.15 -12.76,5.64 -12.48,27.38 3.19,33.94 -9.65,22.75 17.44,25.84 31.00,16.99 3.92,9.87 34.95,15.01 41.51,-1.17 15.91,8.48 48.24,-4.45 28.34,-16.99 14.27,-8.05 19.40,-22.61 0.33,-28.27 l 0.0,0.0 z" entity="da/n" style="fill-opacity: 0.5"/></g><g filter="url(#fga10-i2"><text font-size="10" font-weight="bold" text-anchor="middle" x="50.0" y="-12">PKS Web front-end - </text><text font-size="10" font-weight="bold" text-anchor="middle" x="50.0" y="-2">Development Space /</text><text font-size="10" font-weight="bold" text-anchor="middle" x="50.0" y="8">mapper/space</text></g><text class="cmSpace" entity="da/n" font-size="10" font-weight="bold" text-anchor="middle" x="50.0" y="-12">PKS Web front-end - </text><text class="cmSpace" entity="da/n" font-size="10" font-weight="bold" text-anchor="middle" x="50.0" y="-2">Development Space /</text><text class="cmSpace" entity="da/n" font-size="10" font-weight="bold" text-anchor="middle" x="50.0" y="8">mapper/space</text><rect class="ep" height="8.0" width="96.0" x="0" y="14.0"/><text font-size="8" text-anchor="end" title="Fileset" x="95.0" y="20.0">Fileset</text><rect class="eplinked" height="8.0" width="96.0" x="0" y="23.0"/><path class="eplinked" d="M 96.0,23.0 A 4.0,4.0 180 0,1 96.0,31.0 Z"/><text font-size="8" text-anchor="end" title="Import [urn:uk:co:rsbatechnology:pks:frontend]" x="95.0" y="29.0">Import </text><rect class="ep" height="8.0" width="96.0" x="0" y="32.0"/><text font-size="8" text-anchor="end" title="Import [urn:org:netkernel:lang:groovy]" x="95.0" y="38.0">Import </text><rect class="ep" height="8.0" width="96.0" x="0" y="41.0"/><text font-size="8" text-anchor="end" title="Import [urn:org:netkernel:lang:dpml]" x="95.0" y="47.0">Import </text><rect class="ep" height="8.0" width="96.0" x="0" y="50.0"/><text font-size="8" text-anchor="end" title="Import [urn:org:netkernel:xml:saxon]" x="95.0" y="56.0">Import </text></g><g transform="translate(391.66 -20.00)"><g><path class="space cmSpace" d="m 101.0092879256966,11.758064516129032 c 15.91,-16.18 -20.29,-15.59 -32.95,-12.24 -12.76,-5.40 -29.99,-4.99 -36.40,0.41 -10.12,-4.90 -41.18,-5.60 -35.02,8.98 -12.76,3.58 -12.48,17.39 3.19,21.55 -9.65,14.45 17.44,16.40 31.00,10.79 3.92,6.27 34.95,9.53 41.51,-0.74 15.91,5.39 48.24,-2.82 28.34,-10.79 14.27,-5.11 19.40,-14.35 0.33,-17.95 l 0.0,0.0 z" entity="fo/G" style="fill-opacity: 0.5"/></g><g filter="url(#fga10-i2"><text font-size="10" font-weight="bold" text-anchor="middle" x="50.0" y="8">+PKS Front-end Rootspace</text></g><text class="cmSpace" entity="fo/G" font-size="10" font-weight="bold" text-anchor="middle" x="50.0" y="8">+PKS Front-end Rootspace</text><rect class="eplinked" height="8.0" width="96.0" x="0" y="14.0"/><path class="eplinked" d="M 96.0,14.0 A 4.0,4.0 180 0,1 96.0,22.0 Z"/><text font-size="8" text-anchor="end" title="MapperOverlay" x="95.0" y="20.0">MapperOverlay</text></g><g transform="translate(558.70 -40.50)"><g><path class="space cmSpace" d="m 101.0092879256966,23.810080645161293 c 15.91,-32.76 -20.29,-31.58 -32.95,-24.79 -12.76,-10.94 -29.99,-10.11 -36.40,0.83 -10.12,-9.93 -41.18,-11.33 -35.02,18.19 -12.76,7.25 -12.48,35.21 3.19,43.64 -9.65,29.26 17.44,33.22 31.00,21.85 3.92,12.69 34.95,19.30 41.51,-1.50 15.91,10.91 48.24,-5.72 28.34,-21.85 14.27,-10.35 19.40,-29.07 0.33,-36.35 l 0.0,0.0 z" entity="fo/S" style="fill-opacity: 0.5"/></g><g filter="url(#fga10-i2"><text font-size="10" font-weight="bold" text-anchor="middle" x="50.0" y="-2">PKS Front-end Rootspace </text><text font-size="10" font-weight="bold" text-anchor="middle" x="50.0" y="8">/mapper/space</text></g><text class="cmSpace" entity="fo/S" font-size="10" font-weight="bold" text-anchor="middle" x="50.0" y="-2">PKS Front-end Rootspace </text><text class="cmSpace" entity="fo/S" font-size="10" font-weight="bold" text-anchor="middle" x="50.0" y="8">/mapper/space</text><rect class="eplinked" height="8.0" width="96.0" x="0" y="14.0"/><path class="eplinked" d="M 96.0,14.0 A 4.0,4.0 180 0,1 96.0,22.0 Z"/><text font-size="8" text-anchor="end" title="Import [urn:uk:co:rsbatechnology:pks:builders]" x="95.0" y="20.0">Import </text><rect class="eplinked" height="8.0" width="96.0" x="0" y="23.0"/><path class="eplinked" d="M 96.0,23.0 A 4.0,4.0 180 0,1 96.0,31.0 Z"/><text font-size="8" text-anchor="end" title="Import [urn:uk:co:rsbatechnology:pks:posting]" x="95.0" y="29.0">Import </text><rect class="eplinked" height="8.0" width="96.0" x="0" y="32.0"/><path class="eplinked" d="M 96.0,32.0 A 4.0,4.0 180 0,1 96.0,40.0 Z"/><text font-size="8" text-anchor="end" title="Import [urn:uk:co:rsbatechnology:pks:position]" x="95.0" y="38.0">Import </text><rect class="eplinked" height="8.0" width="96.0" x="0" y="41.0"/><path class="eplinked" d="M 96.0,41.0 A 4.0,4.0 180 0,1 96.0,49.0 Z"/><text font-size="8" text-anchor="end" title="Import [urn:uk:co:rsbatechnology:pks:delta]" x="95.0" y="47.0">Import </text><rect class="ep" height="8.0" width="96.0" x="0" y="50.0"/><text font-size="8" text-anchor="end" title="Fileset" x="95.0" y="56.0">Fileset</text><rect class="ep" height="8.0" width="96.0" x="0" y="59.0"/><text font-size="8" text-anchor="end" title="Import [urn:org:netkernel:lang:dpml]" x="95.0" y="65.0">Import </text><rect class="ep" height="8.0" width="96.0" x="0" y="68.0"/><text font-size="8" text-anchor="end" title="Import [urn:org:netkernel:lang:groovy]" x="95.0" y="74.0">Import </text></g><g transform="translate(900.53 -105.00)"><g><path class="space cmSpace" d="m 101.0092879256966,11.758064516129032 c 15.91,-16.18 -20.29,-15.59 -32.95,-12.24 -12.76,-5.40 -29.99,-4.99 -36.40,0.41 -10.12,-4.90 -41.18,-5.60 -35.02,8.98 -12.76,3.58 -12.48,17.39 3.19,21.55 -9.65,14.45 17.44,16.40 31.00,10.79 3.92,6.27 34.95,9.53 41.51,-0.74 15.91,5.39 48.24,-2.82 28.34,-10.79 14.27,-5.11 19.40,-14.35 0.33,-17.95 l 0.0,0.0 z" entity="fo/9" style="fill-opacity: 0.5"/></g><g filter="url(#fga10-i2"><text font-size="10" font-weight="bold" text-anchor="middle" x="50.0" y="-2">+PKS Position Builder </text><text font-size="10" font-weight="bold" text-anchor="middle" x="50.0" y="8">Rootspace</text></g><text class="cmSpace" entity="fo/9" font-size="10" font-weight="bold" text-anchor="middle" x="50.0" y="-2">+PKS Position Builder </text><text class="cmSpace" entity="fo/9" font-size="10" font-weight="bold" text-anchor="middle" x="50.0" y="8">Rootspace</text><rect class="eplinked" height="8.0" width="96.0" x="0" y="14.0"/><path class="eplinked" d="M 96.0,14.0 A 4.0,4.0 180 0,1 96.0,22.0 Z"/><text font-size="8" text-anchor="end" title="MapperOverlay" x="95.0" y="20.0">MapperOverlay</text></g><g transform="translate(1070.69 -107.50)"><g><path class="space cmSpace" d="m 101.0092879256966,13.227822580645164 c 15.91,-18.20 -20.29,-17.54 -32.95,-13.77 -12.76,-6.08 -29.99,-5.62 -36.40,0.46 -10.12,-5.52 -41.18,-6.30 -35.02,10.11 -12.76,4.03 -12.48,19.56 3.19,24.24 -9.65,16.25 17.44,18.45 31.00,12.14 3.92,7.05 34.95,10.72 41.51,-0.83 15.91,6.06 48.24,-3.18 28.34,-12.14 14.27,-5.75 19.40,-16.15 0.33,-20.20 l 0.0,0.0 z" entity="fo/7" style="fill-opacity: 0.5"/></g><g filter="url(#fga10-i2"><text font-size="10" font-weight="bold" text-anchor="middle" x="50.0" y="-2">PKS Position Builder </text><text font-size="10" font-weight="bold" text-anchor="middle" x="50.0" y="8">Rootspace /mapper/space</text></g><text class="cmSpace" entity="fo/7" font-size="10" font-weight="bold" text-anchor="middle" x="50.0" y="-2">PKS Position Builder </text><text class="cmSpace" entity="fo/7" font-size="10" font-weight="bold" text-anchor="middle" x="50.0" y="8">Rootspace /mapper/space</text><rect class="ep" height="8.0" width="96.0" x="0" y="14.0"/><text font-size="8" text-anchor="end" title="Fileset" x="95.0" y="20.0">Fileset</text><rect class="eplinked" height="8.0" width="96.0" x="0" y="23.0"/><path class="eplinked" d="M 96.0,23.0 A 4.0,4.0 180 0,1 96.0,31.0 Z"/><text font-size="8" text-anchor="end" title="Import [urn:uk:co:rsbatechnology:pks:delta]" x="95.0" y="29.0">Import </text><rect class="ep" height="8.0" width="96.0" x="0" y="32.0"/><text font-size="8" text-anchor="end" title="Import [urn:org:netkernel:lang:groovy]" x="95.0" y="38.0">Import </text></g><g transform="translate(1236.83 25.06)"><g><path class="space cmSpace" d="m 101.0092879256966,11.758064516129032 c 15.91,-16.18 -20.29,-15.59 -32.95,-12.24 -12.76,-5.40 -29.99,-4.99 -36.40,0.41 -10.12,-4.90 -41.18,-5.60 -35.02,8.98 -12.76,3.58 -12.48,17.39 3.19,21.55 -9.65,14.45 17.44,16.40 31.00,10.79 3.92,6.27 34.95,9.53 41.51,-0.74 15.91,5.39 48.24,-2.82 28.34,-10.79 14.27,-5.11 19.40,-14.35 0.33,-17.95 l 0.0,0.0 z" entity="fo/x" style="fill-opacity: 0.5"/></g><g filter="url(#fga10-i2"><text font-size="10" font-weight="bold" text-anchor="middle" x="50.0" y="-2">+PKS Position Delta </text><text font-size="10" font-weight="bold" text-anchor="middle" x="50.0" y="8">Cache Rootspace</text></g><text class="cmSpace" entity="fo/x" font-size="10" font-weight="bold" text-anchor="middle" x="50.0" y="-2">+PKS Position Delta </text><text class="cmSpace" entity="fo/x" font-size="10" font-weight="bold" text-anchor="middle" x="50.0" y="8">Cache Rootspace</text><rect class="eplinked" height="8.0" width="96.0" x="0" y="14.0"/><path class="eplinked" d="M 96.0,14.0 A 4.0,4.0 180 0,1 96.0,22.0 Z"/><text font-size="8" text-anchor="end" title="MapperOverlay" x="95.0" y="20.0">MapperOverlay</text></g><g transform="translate(1411.78 14.20)"><g><path class="space cmSpace" d="m 101.0092879256966,26.455645161290327 c 15.91,-36.40 -20.29,-35.09 -32.95,-27.54 -12.76,-12.16 -29.99,-11.24 -36.40,0.92 -10.12,-11.03 -41.18,-12.59 -35.02,20.21 -12.76,8.06 -12.48,39.12 3.19,48.48 -9.65,32.51 17.44,36.91 31.00,24.28 3.92,14.10 34.95,21.45 41.51,-1.67 15.91,12.12 48.24,-6.35 28.34,-24.28 14.27,-11.50 19.40,-32.30 0.33,-40.39 l 0.0,0.0 z" entity="fo/I" style="fill-opacity: 0.5"/></g><g filter="url(#fga10-i2"><text font-size="10" font-weight="bold" text-anchor="middle" x="50.0" y="-2">PKS Position Delta Cache</text><text font-size="10" font-weight="bold" text-anchor="middle" x="50.0" y="8"> Rootspace /mapper/space</text></g><text class="cmSpace" entity="fo/I" font-size="10" font-weight="bold" text-anchor="middle" x="50.0" y="-2">PKS Position Delta Cache</text><text class="cmSpace" entity="fo/I" font-size="10" font-weight="bold" text-anchor="middle" x="50.0" y="8"> Rootspace /mapper/space</text><rect class="ep" height="8.0" width="96.0" x="0" y="14.0"/><text font-size="8" text-anchor="end" title="Fileset" x="95.0" y="20.0">Fileset</text><rect class="ep" height="8.0" width="96.0" x="0" y="23.0"/><text font-size="8" text-anchor="end" title="Import [urn:org:netkernel:mod:pds]" x="95.0" y="29.0">Import </text><rect class="ep" height="8.0" width="96.0" x="0" y="32.0"/><text font-size="8" text-anchor="end" title="Import [urn:org:netkernel:mod:pds:rdbms:local]" x="95.0" y="38.0">Import </text><rect class="ep" height="8.0" width="96.0" x="0" y="41.0"/><text font-size="8" text-anchor="end" title="Literal" x="95.0" y="47.0">Literal</text><rect class="ep" height="8.0" width="96.0" x="0" y="50.0"/><text font-size="8" text-anchor="end" title="Import [urn:org:netkernel:lang:groovy]" x="95.0" y="56.0">Import </text><rect class="ep" height="8.0" width="96.0" x="0" y="59.0"/><text font-size="8" text-anchor="end" title="Import [urn:org:netkernel:lang:dpml]" x="95.0" y="65.0">Import </text><rect class="ep" height="8.0" width="96.0" x="0" y="68.0"/><text font-size="8" text-anchor="end" title="Import [urn:org:netkernel:xml:saxon]" x="95.0" y="74.0">Import </text><rect class="ep" height="8.0" width="96.0" x="0" y="77.0"/><text font-size="8" text-anchor="end" title="Import [urn:org:netkernel:lang:xrl]" x="95.0" y="83.0">Import </text></g><g transform="translate(898.09 65.00)"><g><path class="space cmSpace" d="m 101.0092879256966,11.758064516129032 c 15.91,-16.18 -20.29,-15.59 -32.95,-12.24 -12.76,-5.40 -29.99,-4.99 -36.40,0.41 -10.12,-4.90 -41.18,-5.60 -35.02,8.98 -12.76,3.58 -12.48,17.39 3.19,21.55 -9.65,14.45 17.44,16.40 31.00,10.79 3.92,6.27 34.95,9.53 41.51,-0.74 15.91,5.39 48.24,-2.82 28.34,-10.79 14.27,-5.11 19.40,-14.35 0.33,-17.95 l 0.0,0.0 z" entity="fo/8" style="fill-opacity: 0.5"/></g><g filter="url(#fga10-i2"><text font-size="10" font-weight="bold" text-anchor="middle" x="50.0" y="-2">+PKS Position Posting </text><text font-size="10" font-weight="bold" text-anchor="middle" x="50.0" y="8">Rootspace</text></g><text class="cmSpace" entity="fo/8" font-size="10" font-weight="bold" text-anchor="middle" x="50.0" y="-2">+PKS Position Posting </text><text class="cmSpace" entity="fo/8" font-size="10" font-weight="bold" text-anchor="middle" x="50.0" y="8">Rootspace</text><rect class="eplinked" height="8.0" width="96.0" x="0" y="14.0"/><path class="eplinked" d="M 96.0,14.0 A 4.0,4.0 180 0,1 96.0,22.0 Z"/><text font-size="8" text-anchor="end" title="MapperOverlay" x="95.0" y="20.0">MapperOverlay</text></g><g transform="translate(1070.49 58.00)"><g><path class="space cmSpace" d="m 101.0092879256966,15.873387096774195 c 15.91,-21.84 -20.29,-21.05 -32.95,-16.53 -12.76,-7.29 -29.99,-6.74 -36.40,0.55 -10.12,-6.62 -41.18,-7.56 -35.02,12.13 -12.76,4.83 -12.48,23.47 3.19,29.09 -9.65,19.50 17.44,22.14 31.00,14.57 3.92,8.46 34.95,12.87 41.51,-1.00 15.91,7.27 48.24,-3.81 28.34,-14.57 14.27,-6.90 19.40,-19.38 0.33,-24.23 l 0.0,0.0 z" entity="fo/t" style="fill-opacity: 0.5"/></g><g filter="url(#fga10-i2"><text font-size="10" font-weight="bold" text-anchor="middle" x="50.0" y="-2">PKS Position Posting </text><text font-size="10" font-weight="bold" text-anchor="middle" x="50.0" y="8">Rootspace /mapper/space</text></g><text class="cmSpace" entity="fo/t" font-size="10" font-weight="bold" text-anchor="middle" x="50.0" y="-2">PKS Position Posting </text><text class="cmSpace" entity="fo/t" font-size="10" font-weight="bold" text-anchor="middle" x="50.0" y="8">Rootspace /mapper/space</text><rect class="ep" height="8.0" width="96.0" x="0" y="14.0"/><text font-size="8" text-anchor="end" title="Fileset" x="95.0" y="20.0">Fileset</text><rect class="eplinked" height="8.0" width="96.0" x="0" y="23.0"/><path class="eplinked" d="M 96.0,23.0 A 4.0,4.0 180 0,1 96.0,31.0 Z"/><text font-size="8" text-anchor="end" title="Import [urn:uk:co:rsbatechnology:pks:position]" x="95.0" y="29.0">Import </text><rect class="eplinked" height="8.0" width="96.0" x="0" y="32.0"/><path class="eplinked" d="M 96.0,32.0 A 4.0,4.0 180 0,1 96.0,40.0 Z"/><text font-size="8" text-anchor="end" title="Import [urn:uk:co:rsbatechnology:pks:delta]" x="95.0" y="38.0">Import </text><rect class="ep" height="8.0" width="96.0" x="0" y="41.0"/><text font-size="8" text-anchor="end" title="Import [urn:org:netkernel:lang:groovy]" x="95.0" y="47.0">Import </text></g><g transform="translate(1243.63 147.44)"><g><path class="space cmSpace" d="m 101.0092879256966,11.758064516129032 c 15.91,-16.18 -20.29,-15.59 -32.95,-12.24 -12.76,-5.40 -29.99,-4.99 -36.40,0.41 -10.12,-4.90 -41.18,-5.60 -35.02,8.98 -12.76,3.58 -12.48,17.39 3.19,21.55 -9.65,14.45 17.44,16.40 31.00,10.79 3.92,6.27 34.95,9.53 41.51,-0.74 15.91,5.39 48.24,-2.82 28.34,-10.79 14.27,-5.11 19.40,-14.35 0.33,-17.95 l 0.0,0.0 z" entity="fo/u" style="fill-opacity: 0.5"/></g><g filter="url(#fga10-i2"><text font-size="10" font-weight="bold" text-anchor="middle" x="50.0" y="-2">+PKS Position Cache </text><text font-size="10" font-weight="bold" text-anchor="middle" x="50.0" y="8">Rootspace</text></g><text class="cmSpace" entity="fo/u" font-size="10" font-weight="bold" text-anchor="middle" x="50.0" y="-2">+PKS Position Cache </text><text class="cmSpace" entity="fo/u" font-size="10" font-weight="bold" text-anchor="middle" x="50.0" y="8">Rootspace</text><rect class="eplinked" height="8.0" width="96.0" x="0" y="14.0"/><path class="eplinked" d="M 96.0,14.0 A 4.0,4.0 180 0,1 96.0,22.0 Z"/><text font-size="8" text-anchor="end" title="MapperOverlay" x="95.0" y="20.0">MapperOverlay</text></g><g transform="translate(1407.63 117.97)"><g><path class="space cmSpace" d="m 101.0092879256966,29.101209677419355 c 15.91,-40.04 -20.29,-38.59 -32.95,-30.30 -12.76,-13.37 -29.99,-12.36 -36.40,1.01 -10.12,-12.14 -41.18,-13.85 -35.02,22.24 -12.76,8.86 -12.48,43.03 3.19,53.33 -9.65,35.76 17.44,40.60 31.00,26.71 3.92,15.51 34.95,23.59 41.51,-1.84 15.91,13.33 48.24,-6.99 28.34,-26.71 14.27,-12.65 19.40,-35.53 0.33,-44.43 l 0.0,0.0 z" entity="fo/h" style="fill-opacity: 0.5"/></g><g filter="url(#fga10-i2"><text font-size="10" font-weight="bold" text-anchor="middle" x="50.0" y="-2">PKS Position Cache </text><text font-size="10" font-weight="bold" text-anchor="middle" x="50.0" y="8">Rootspace /mapper/space</text></g><text class="cmSpace" entity="fo/h" font-size="10" font-weight="bold" text-anchor="middle" x="50.0" y="-2">PKS Position Cache </text><text class="cmSpace" entity="fo/h" font-size="10" font-weight="bold" text-anchor="middle" x="50.0" y="8">Rootspace /mapper/space</text><rect class="ep" height="8.0" width="96.0" x="0" y="14.0"/><text font-size="8" text-anchor="end" title="Fileset" x="95.0" y="20.0">Fileset</text><rect class="ep" height="8.0" width="96.0" x="0" y="23.0"/><text font-size="8" text-anchor="end" title="Literal" x="95.0" y="29.0">Literal</text><rect class="ep" height="8.0" width="96.0" x="0" y="32.0"/><text font-size="8" text-anchor="end" title="Import [urn:org:netkernel:mod:pds]" x="95.0" y="38.0">Import </text><rect class="ep" height="8.0" width="96.0" x="0" y="41.0"/><text font-size="8" text-anchor="end" title="Import [urn:org:netkernel:mod:pds:rdbms:local]" x="95.0" y="47.0">Import </text><rect class="ep" height="8.0" width="96.0" x="0" y="50.0"/><text font-size="8" text-anchor="end" title="Literal" x="95.0" y="56.0">Literal</text><rect class="ep" height="8.0" width="96.0" x="0" y="59.0"/><text font-size="8" text-anchor="end" title="Import [urn:org:netkernel:lang:groovy]" x="95.0" y="65.0">Import </text><rect class="ep" height="8.0" width="96.0" x="0" y="68.0"/><text font-size="8" text-anchor="end" title="Import [urn:org:netkernel:lang:xrl]" x="95.0" y="74.0">Import </text><rect class="ep" height="8.0" width="96.0" x="0" y="77.0"/><text font-size="8" text-anchor="end" title="Import [urn:org:netkernel:xml:saxon]" x="95.0" y="83.0">Import </text><rect class="ep" height="8.0" width="96.0" x="0" y="86.0"/><text font-size="8" text-anchor="end" title="Import [urn:org:netkernel:lang:dpml]" x="95.0" y="92.0">Import </text></g></g></svg>