<?xml version="1.0" encoding="UTF-8" standalone="no"?><svg xmlns="http://www.w3.org/2000/svg" xmlns:hds="http://netkernel.org/hds" height="910" version="1.1" width="1210"><style type="text/css">svg { font-family:Verdana,Helvetica,sans-serif; }
 .s { width: 8px; height: 8px; background: #888;}

.cl-noshade { stroke:#000;stroke-width:1;fill:none; }
.cl-noshade .cl-start, .cl-noshade polygon, .cl-noshade circle, .cl-noshade .cl-startep2 { fill:#000;stroke:none; }


.cl { stroke:#666;stroke-width:2;fill:none; }
.cl-start, .cl polygon, .cl circle { fill:#666;stroke:none; }
.cl-startep1, .cl-startep2 { fill: none; stroke: none; }
.cl ellipse { stroke:#666;stroke-width:2;fill:none; }

.cl:hover { stroke:rgb(255,0,0);stroke-width:2;fill:none; }
.cl:hover .cl-start, .cl:hover polygon, .cl:hover circle { fill:rgb(255,0,0); }
.cl:hover .cl-startep1, .cl:hover .cl-startep2 { fill: rgb(255,0,0); stroke: none; }
.clunder { stroke:#FFF;stroke-width:5;fill:none; opacity:0.5}
.ep { fill:#000;fill-opacity:0.05;stroke:none;}
.eplinked { fill:#000; fill-opacity: 0.15; stroke:none;}
.ep-noshade { fill:none; stroke:none;}
.eptransport { fill:#F88;fill-opacity:1;stroke:none;}
.module { fill:#EEE;fill-opacity:0.66;stroke:#000;stroke-width:1;}
.module-noshade { fill:none;stroke:#000;stroke-width:1;}
.nspace { fill: #FFF; fill-rule:evenodd; stroke:#000;stroke-width:1; }
.rspace { fill:#FFF; fill-rule:evenodd;stroke:#000;stroke-width:1; }
.space { fill: #FFF; fill-rule:evenodd; stroke:#000;stroke-width:1; }
.lspace { fill: #DDD; fill-rule:evenodd;stroke:#000;stroke-width:1; }
.pspace { fill: #F88; fill-rule:evenodd;stroke:#000;stroke-width:1; }</style><filter height="150%" id="fga4-i1" width="150%"><feOffset dx="2" dy="2" in="SourceAlpha" result="offOut"/><feGaussianBlur in="offOut" result="blurOut" stdDeviation="3"/><feBlend in="SourceGraphic" in2="blurOut" mode="normal"/></filter><filter id="fga4-i2"><feMorphology in="SourceAlpha" operator="dilate" radius="1" result="dilateOut"/><feGaussianBlur in="dilateOut" result="blurOut" stdDeviation="1"/><feColorMatrix in="blurOut" type="matrix" values="0 0 0 0 1   0 0 0 0 1   0 0 0 0 1   0 0 0 0.75 0"/></filter><filter id="fga4-i4" x="-5%" y="-5%"><feOffset dx="2" dy="2" in="SourceAlpha" result="offOut"/><feGaussianBlur in="offOut" result="result1" stdDeviation="3"/><feColorMatrix in="SourceAlpha" result="result2" type="matrix" values="0 0 0 0 0 0 0 0 0 0 0 0 0 0 0 0 0 0 -1.5 1"/><feComposite in="result1" in2="result2" k1="1.0" k2="0.0" k3="0.0" k4="0.0" operator="arithmetic"/></filter><g transform="scale(1.0 1.0)  translate(5.0, 125.5)"><g transform="translate(30.00 -20.00)"><g filter="url(#fga4-i1)"><path class="rspace cmSpace" d="m 101.0092879256966,11.758064516129032 c 15.91,-16.18 -20.29,-15.59 -32.95,-12.24 -12.76,-5.40 -29.99,-4.99 -36.40,0.41 -10.12,-4.90 -41.18,-5.60 -35.02,8.98 -12.76,3.58 -12.48,17.39 3.19,21.55 -9.65,14.45 17.44,16.40 31.00,10.79 3.92,6.27 34.95,9.53 41.51,-0.74 15.91,5.39 48.24,-2.82 28.34,-10.79 14.27,-5.11 19.40,-14.35 0.33,-17.95 l 0.0,0.0 z" entity="fo/G" style="fill-opacity: 1.0"/></g></g><g transform="translate(201.15 -40.50)"><g filter="url(#fga4-i1)"><path class="space cmSpace" d="m 101.0092879256966,23.810080645161293 c 15.91,-32.76 -20.29,-31.58 -32.95,-24.79 -12.76,-10.94 -29.99,-10.11 -36.40,0.83 -10.12,-9.93 -41.18,-11.33 -35.02,18.19 -12.76,7.25 -12.48,35.21 3.19,43.64 -9.65,29.26 17.44,33.22 31.00,21.85 3.92,12.69 34.95,19.30 41.51,-1.50 15.91,10.91 48.24,-5.72 28.34,-21.85 14.27,-10.35 19.40,-29.07 0.33,-36.35 l 0.0,0.0 z" entity="fo/S" style="fill-opacity: 1.0"/></g></g><g transform="translate(461.66 192.50)"><g filter="url(#fga4-i1)"><path class="rspace cmSpace" d="m 101.0092879256966,11.758064516129032 c 15.91,-16.18 -20.29,-15.59 -32.95,-12.24 -12.76,-5.40 -29.99,-4.99 -36.40,0.41 -10.12,-4.90 -41.18,-5.60 -35.02,8.98 -12.76,3.58 -12.48,17.39 3.19,21.55 -9.65,14.45 17.44,16.40 31.00,10.79 3.92,6.27 34.95,9.53 41.51,-0.74 15.91,5.39 48.24,-2.82 28.34,-10.79 14.27,-5.11 19.40,-14.35 0.33,-17.95 l 0.0,0.0 z" entity="fo/9" style="fill-opacity: 1.0"/></g></g><g transform="translate(628.70 190.00)"><g filter="url(#fga4-i1)"><path class="space cmSpace" d="m 101.0092879256966,13.227822580645164 c 15.91,-18.20 -20.29,-17.54 -32.95,-13.77 -12.76,-6.08 -29.99,-5.62 -36.40,0.46 -10.12,-5.52 -41.18,-6.30 -35.02,10.11 -12.76,4.03 -12.48,19.56 3.19,24.24 -9.65,16.25 17.44,18.45 31.00,12.14 3.92,7.05 34.95,10.72 41.51,-0.83 15.91,6.06 48.24,-3.18 28.34,-12.14 14.27,-5.75 19.40,-16.15 0.33,-20.20 l 0.0,0.0 z" entity="fo/7" style="fill-opacity: 1.0"/></g></g><g transform="translate(907.34 274.42)"><g filter="url(#fga4-i1)"><path class="rspace cmSpace" d="m 101.0092879256966,11.758064516129032 c 15.91,-16.18 -20.29,-15.59 -32.95,-12.24 -12.76,-5.40 -29.99,-4.99 -36.40,0.41 -10.12,-4.90 -41.18,-5.60 -35.02,8.98 -12.76,3.58 -12.48,17.39 3.19,21.55 -9.65,14.45 17.44,16.40 31.00,10.79 3.92,6.27 34.95,9.53 41.51,-0.74 15.91,5.39 48.24,-2.82 28.34,-10.79 14.27,-5.11 19.40,-14.35 0.33,-17.95 l 0.0,0.0 z" entity="fo/x" style="fill-opacity: 1.0"/></g></g><g transform="translate(1070.97 264.17)"><g filter="url(#fga4-i1)"><path class="space cmSpace" d="m 101.0092879256966,26.455645161290327 c 15.91,-36.40 -20.29,-35.09 -32.95,-27.54 -12.76,-12.16 -29.99,-11.24 -36.40,0.92 -10.12,-11.03 -41.18,-12.59 -35.02,20.21 -12.76,8.06 -12.48,39.12 3.19,48.48 -9.65,32.51 17.44,36.91 31.00,24.28 3.92,14.10 34.95,21.45 41.51,-1.67 15.91,12.12 48.24,-6.35 28.34,-24.28 14.27,-11.50 19.40,-32.30 0.33,-40.39 l 0.0,0.0 z" entity="fo/I" style="fill-opacity: 1.0"/></g></g><g transform="translate(359.05 192.50)"><g filter="url(#fga4-i1)"><path class="rspace cmSpace" d="m 101.0092879256966,11.758064516129032 c 15.91,-16.18 -20.29,-15.59 -32.95,-12.24 -12.76,-5.40 -29.99,-4.99 -36.40,0.41 -10.12,-4.90 -41.18,-5.60 -35.02,8.98 -12.76,3.58 -12.48,17.39 3.19,21.55 -9.65,14.45 17.44,16.40 31.00,10.79 3.92,6.27 34.95,9.53 41.51,-0.74 15.91,5.39 48.24,-2.82 28.34,-10.79 14.27,-5.11 19.40,-14.35 0.33,-17.95 l 0.0,0.0 z" entity="fo/8" style="fill-opacity: 1.0"/></g></g><g transform="translate(730.25 185.50)"><g filter="url(#fga4-i1)"><path class="space cmSpace" d="m 101.0092879256966,15.873387096774195 c 15.91,-21.84 -20.29,-21.05 -32.95,-16.53 -12.76,-7.29 -29.99,-6.74 -36.40,0.55 -10.12,-6.62 -41.18,-7.56 -35.02,12.13 -12.76,4.83 -12.48,23.47 3.19,29.09 -9.65,19.50 17.44,22.14 31.00,14.57 3.92,8.46 34.95,12.87 41.51,-1.00 15.91,7.27 48.24,-3.81 28.34,-14.57 14.27,-6.90 19.40,-19.38 0.33,-24.23 l 0.0,0.0 z" entity="fo/t" style="fill-opacity: 1.0"/></g></g><g transform="translate(891.28 181.42)"><g filter="url(#fga4-i1)"><path class="rspace cmSpace" d="m 101.0092879256966,11.758064516129032 c 15.91,-16.18 -20.29,-15.59 -32.95,-12.24 -12.76,-5.40 -29.99,-4.99 -36.40,0.41 -10.12,-4.90 -41.18,-5.60 -35.02,8.98 -12.76,3.58 -12.48,17.39 3.19,21.55 -9.65,14.45 17.44,16.40 31.00,10.79 3.92,6.27 34.95,9.53 41.51,-0.74 15.91,5.39 48.24,-2.82 28.34,-10.79 14.27,-5.11 19.40,-14.35 0.33,-17.95 l 0.0,0.0 z" entity="fo/u" style="fill-opacity: 1.0"/></g></g><g transform="translate(1070.21 151.33)"><g filter="url(#fga4-i1)"><path class="space cmSpace" d="m 101.0092879256966,29.101209677419355 c 15.91,-40.04 -20.29,-38.59 -32.95,-30.30 -12.76,-13.37 -29.99,-12.36 -36.40,1.01 -10.12,-12.14 -41.18,-13.85 -35.02,22.24 -12.76,8.86 -12.48,43.03 3.19,53.33 -9.65,35.76 17.44,40.60 31.00,26.71 3.92,15.51 34.95,23.59 41.51,-1.84 15.91,13.33 48.24,-6.99 28.34,-26.71 14.27,-12.65 19.40,-35.53 0.33,-44.43 l 0.0,0.0 z" entity="fo/h" style="fill-opacity: 1.0"/></g></g><g transform="translate(50.00 660.00)"><g filter="url(#fga4-i1)"><path class="rspace cmSpace" d="m 101.0092879256966,11.758064516129032 c 15.91,-16.18 -20.29,-15.59 -32.95,-12.24 -12.76,-5.40 -29.99,-4.99 -36.40,0.41 -10.12,-4.90 -41.18,-5.60 -35.02,8.98 -12.76,3.58 -12.48,17.39 3.19,21.55 -9.65,14.45 17.44,16.40 31.00,10.79 3.92,6.27 34.95,9.53 41.51,-0.74 15.91,5.39 48.24,-2.82 28.34,-10.79 14.27,-5.11 19.40,-14.35 0.33,-17.95 l 0.0,0.0 z" entity="fo/O" style="fill-opacity: 1.0"/></g></g><g class="cl cmPhysical" entity="fo/S/gl"><rect class="cl-startep1" height="8.0" width="96.0" x="201.15485" y="-8.5"/><path class="cl-startep2" d="M 297.15485,-8.5 A 4.0,4.0 180 0,1 297.15485,-0.5 Z"/><path d="M 301.15485 -4.5 c 288.56128 0 288.56128 205.91689 573.12256 205.91689"/><polygon points="878.2774,201.41689,870.2774,207.41689,870.2774,195.41689"/></g><g class="cl cmPhysical" entity="fo/8/MM"><rect class="cl-startep1" height="8.0" width="96.0" x="359.04523" y="206.5"/><path class="cl-startep2" d="M 455.04523,206.5 A 4.0,4.0 180 0,1 455.04523,214.5 Z"/><path d="M 459.04523 210.5 c 129.10349 0 129.10349 2.0 254.20697 2.0"/><polygon points="717.2522,212.5,709.2522,218.5,709.2522,206.5"/></g><g class="cl cmPhysical" entity="fo/S/MM"><rect class="cl-startep1" height="8.0" width="96.0" x="201.15485" y="-26.5"/><path class="cl-startep2" d="M 297.15485,-26.5 A 4.0,4.0 180 0,1 297.15485,-18.5 Z"/><path d="M 301.15485 -22.5 c 73.75119 0 73.75119 235.0 143.50238 235.0"/><polygon points="448.65723,212.5,440.65723,218.5,440.65723,206.5"/></g><g class="cl cmPhysical" entity="fo/t/tU"><rect class="cl-startep1" height="8.0" width="96.0" x="730.2522" y="208.5"/><path class="cl-startep2" d="M 826.2522,208.5 A 4.0,4.0 180 0,1 826.2522,216.5 Z"/><path d="M 830.2522 212.5 c 11.083115 0 36.942093 -11.083115 44.025208 -11.083115"/><polygon points="878.2774,201.41689,870.2774,207.41689,870.2774,195.41689"/></g><g class="cl cmPhysical" entity="fo/S/tU"><rect class="cl-startep1" height="8.0" width="96.0" x="201.15485" y="-17.5"/><path class="cl-startep2" d="M 297.15485,-17.5 A 4.0,4.0 180 0,1 297.15485,-9.5 Z"/><path d="M 301.15485 -13.5 c 100.0 0 -55.10962 226.0 40.89038 226.0"/><polygon points="346.04523,212.5,338.04523,218.5,338.04523,206.5"/></g><g class="cl cmPhysical" entity="fo/x/MM"><rect class="cl-startep1" height="8.0" width="96.0" x="907.33936" y="288.41644"/><path class="cl-startep2" d="M 1003.33936,288.41644 A 4.0,4.0 180 0,1 1003.33936,296.41644 Z"/><path d="M 1007.33936 292.41644 c 16.749237 0 33.880035 16.749237 46.629272 16.749237"/><polygon points="1057.9686,309.16568,1049.9686,315.16568,1049.9686,303.16568"/></g><g class="cl cmPhysical" entity="fo/9/MM"><rect class="cl-startep1" height="8.0" width="96.0" x="461.65723" y="206.5"/><path class="cl-startep2" d="M 557.6572,206.5 A 4.0,4.0 180 0,1 557.6572,214.5 Z"/><path d="M 561.6572 210.5 c 2.0 0 52.04547 2.0 50.04547 2.0"/><polygon points="615.7027,212.5,607.7027,218.5,607.7027,206.5"/></g><g class="cl cmPhysical" entity="fo/S/NO"><rect class="cl-startep1" height="8.0" width="96.0" x="201.15485" y="0.5"/><path class="cl-startep2" d="M 297.15485,0.5 A 4.0,4.0 180 0,1 297.15485,8.5 Z"/><path d="M 301.15485 4.5 c 296.59225 0 296.59225 289.91644 589.1845 289.91644"/><polygon points="894.33936,294.41644,886.33936,300.41644,886.33936,288.41644"/></g><g class="cl cmPhysical" entity="fo/G/MM"><rect class="cl-startep1" height="8.0" width="96.0" x="30.0" y="-6.0"/><path class="cl-startep2" d="M 126.0,-6.0 A 4.0,4.0 180 0,1 126.0,2.0 Z"/><path d="M 130.0 -2.0 c 2.0 0 56.154846 2.0 54.154846 2.0"/><polygon points="188.15485,0.0,180.15485,6.0,180.15485,-6.0"/></g><g class="cl cmPhysical" entity="fo/t/45"><rect class="cl-startep1" height="8.0" width="96.0" x="730.2522" y="217.5"/><path class="cl-startep2" d="M 826.2522,217.5 A 4.0,4.0 180 0,1 826.2522,225.5 Z"/><path d="M 830.2522 221.5 c 72.91644 0 -8.829285 72.91644 60.08716 72.91644"/><polygon points="894.33936,294.41644,886.33936,300.41644,886.33936,288.41644"/></g><g class="cl cmPhysical" entity="fo/u/MM"><rect class="cl-startep1" height="8.0" width="96.0" x="891.2774" y="195.41689"/><path class="cl-startep2" d="M 987.2774,195.41689 A 4.0,4.0 180 0,1 987.2774,203.41689 Z"/><path d="M 991.2774 199.41689 c 1.4174347 0 64.51134 1.4174347 61.928772 1.4174347"/><polygon points="1057.2062,200.83432,1049.2062,206.83432,1049.2062,194.83432"/></g><g class="cl cmPhysical" entity="fo/7/tU"><rect class="cl-startep1" height="8.0" width="96.0" x="628.7027" y="213.0"/><path class="cl-startep2" d="M 724.7027,213.0 A 4.0,4.0 180 0,1 724.7027,221.0 Z"/><path d="M 728.7027 217.0 c 82.81833 0 82.81833 77.41644 161.63666 77.41644"/><polygon points="894.33936,294.41644,886.33936,300.41644,886.33936,288.41644"/></g><g transform="translate(30.00 -20.00)"><g><path class="rspace cmSpace" d="m 101.0092879256966,11.758064516129032 c 15.91,-16.18 -20.29,-15.59 -32.95,-12.24 -12.76,-5.40 -29.99,-4.99 -36.40,0.41 -10.12,-4.90 -41.18,-5.60 -35.02,8.98 -12.76,3.58 -12.48,17.39 3.19,21.55 -9.65,14.45 17.44,16.40 31.00,10.79 3.92,6.27 34.95,9.53 41.51,-0.74 15.91,5.39 48.24,-2.82 28.34,-10.79 14.27,-5.11 19.40,-14.35 0.33,-17.95 l 0.0,0.0 z" entity="fo/G" style="fill-opacity: 0.5"/></g><g filter="url(#fga4-i2"><text font-size="10" font-weight="bold" text-anchor="middle" x="50.0" y="8">+PKS Front-end Rootspace</text></g><text class="cmSpace" entity="fo/G" font-size="10" font-weight="bold" text-anchor="middle" x="50.0" y="8">+PKS Front-end Rootspace</text><rect class="eplinked" height="8.0" width="96.0" x="0" y="14.0"/><path class="eplinked" d="M 96.0,14.0 A 4.0,4.0 180 0,1 96.0,22.0 Z"/><text font-size="8" text-anchor="end" title="MapperOverlay" x="95.0" y="20.0">MapperOverlay</text></g><g transform="translate(201.15 -40.50)"><g><path class="space cmSpace" d="m 101.0092879256966,23.810080645161293 c 15.91,-32.76 -20.29,-31.58 -32.95,-24.79 -12.76,-10.94 -29.99,-10.11 -36.40,0.83 -10.12,-9.93 -41.18,-11.33 -35.02,18.19 -12.76,7.25 -12.48,35.21 3.19,43.64 -9.65,29.26 17.44,33.22 31.00,21.85 3.92,12.69 34.95,19.30 41.51,-1.50 15.91,10.91 48.24,-5.72 28.34,-21.85 14.27,-10.35 19.40,-29.07 0.33,-36.35 l 0.0,0.0 z" entity="fo/S" style="fill-opacity: 0.5"/></g><g filter="url(#fga4-i2"><text font-size="10" font-weight="bold" text-anchor="middle" x="50.0" y="-2">PKS Front-end Rootspace </text><text font-size="10" font-weight="bold" text-anchor="middle" x="50.0" y="8">/mapper/space</text></g><text class="cmSpace" entity="fo/S" font-size="10" font-weight="bold" text-anchor="middle" x="50.0" y="-2">PKS Front-end Rootspace </text><text class="cmSpace" entity="fo/S" font-size="10" font-weight="bold" text-anchor="middle" x="50.0" y="8">/mapper/space</text><rect class="eplinked" height="8.0" width="96.0" x="0" y="14.0"/><path class="eplinked" d="M 96.0,14.0 A 4.0,4.0 180 0,1 96.0,22.0 Z"/><text font-size="8" text-anchor="end" title="Import [urn:uk:co:rsbatechnology:pks:builders]" x="95.0" y="20.0">Import </text><rect class="eplinked" height="8.0" width="96.0" x="0" y="23.0"/><path class="eplinked" d="M 96.0,23.0 A 4.0,4.0 180 0,1 96.0,31.0 Z"/><text font-size="8" text-anchor="end" title="Import [urn:uk:co:rsbatechnology:pks:posting]" x="95.0" y="29.0">Import </text><rect class="eplinked" height="8.0" width="96.0" x="0" y="32.0"/><path class="eplinked" d="M 96.0,32.0 A 4.0,4.0 180 0,1 96.0,40.0 Z"/><text font-size="8" text-anchor="end" title="Import [urn:uk:co:rsbatechnology:pks:position]" x="95.0" y="38.0">Import </text><rect class="eplinked" height="8.0" width="96.0" x="0" y="41.0"/><path class="eplinked" d="M 96.0,41.0 A 4.0,4.0 180 0,1 96.0,49.0 Z"/><text font-size="8" text-anchor="end" title="Import [urn:uk:co:rsbatechnology:pks:delta]" x="95.0" y="47.0">Import </text><rect class="ep" height="8.0" width="96.0" x="0" y="50.0"/><text font-size="8" text-anchor="end" title="Fileset" x="95.0" y="56.0">Fileset</text><rect class="ep" height="8.0" width="96.0" x="0" y="59.0"/><text font-size="8" text-anchor="end" title="Import [urn:org:netkernel:lang:dpml]" x="95.0" y="65.0">Import </text><rect class="ep" height="8.0" width="96.0" x="0" y="68.0"/><text font-size="8" text-anchor="end" title="Import [urn:org:netkernel:lang:groovy]" x="95.0" y="74.0">Import </text></g><g transform="translate(461.66 192.50)"><g><path class="rspace cmSpace" d="m 101.0092879256966,11.758064516129032 c 15.91,-16.18 -20.29,-15.59 -32.95,-12.24 -12.76,-5.40 -29.99,-4.99 -36.40,0.41 -10.12,-4.90 -41.18,-5.60 -35.02,8.98 -12.76,3.58 -12.48,17.39 3.19,21.55 -9.65,14.45 17.44,16.40 31.00,10.79 3.92,6.27 34.95,9.53 41.51,-0.74 15.91,5.39 48.24,-2.82 28.34,-10.79 14.27,-5.11 19.40,-14.35 0.33,-17.95 l 0.0,0.0 z" entity="fo/9" style="fill-opacity: 0.5"/></g><g filter="url(#fga4-i2"><text font-size="10" font-weight="bold" text-anchor="middle" x="50.0" y="-2">+PKS Position Builder </text><text font-size="10" font-weight="bold" text-anchor="middle" x="50.0" y="8">Rootspace</text></g><text class="cmSpace" entity="fo/9" font-size="10" font-weight="bold" text-anchor="middle" x="50.0" y="-2">+PKS Position Builder </text><text class="cmSpace" entity="fo/9" font-size="10" font-weight="bold" text-anchor="middle" x="50.0" y="8">Rootspace</text><rect class="eplinked" height="8.0" width="96.0" x="0" y="14.0"/><path class="eplinked" d="M 96.0,14.0 A 4.0,4.0 180 0,1 96.0,22.0 Z"/><text font-size="8" text-anchor="end" title="MapperOverlay" x="95.0" y="20.0">MapperOverlay</text></g><g transform="translate(628.70 190.00)"><g><path class="space cmSpace" d="m 101.0092879256966,13.227822580645164 c 15.91,-18.20 -20.29,-17.54 -32.95,-13.77 -12.76,-6.08 -29.99,-5.62 -36.40,0.46 -10.12,-5.52 -41.18,-6.30 -35.02,10.11 -12.76,4.03 -12.48,19.56 3.19,24.24 -9.65,16.25 17.44,18.45 31.00,12.14 3.92,7.05 34.95,10.72 41.51,-0.83 15.91,6.06 48.24,-3.18 28.34,-12.14 14.27,-5.75 19.40,-16.15 0.33,-20.20 l 0.0,0.0 z" entity="fo/7" style="fill-opacity: 0.5"/></g><g filter="url(#fga4-i2"><text font-size="10" font-weight="bold" text-anchor="middle" x="50.0" y="-2">PKS Position Builder </text><text font-size="10" font-weight="bold" text-anchor="middle" x="50.0" y="8">Rootspace /mapper/space</text></g><text class="cmSpace" entity="fo/7" font-size="10" font-weight="bold" text-anchor="middle" x="50.0" y="-2">PKS Position Builder </text><text class="cmSpace" entity="fo/7" font-size="10" font-weight="bold" text-anchor="middle" x="50.0" y="8">Rootspace /mapper/space</text><rect class="ep" height="8.0" width="96.0" x="0" y="14.0"/><text font-size="8" text-anchor="end" title="Fileset" x="95.0" y="20.0">Fileset</text><rect class="eplinked" height="8.0" width="96.0" x="0" y="23.0"/><path class="eplinked" d="M 96.0,23.0 A 4.0,4.0 180 0,1 96.0,31.0 Z"/><text font-size="8" text-anchor="end" title="Import [urn:uk:co:rsbatechnology:pks:delta]" x="95.0" y="29.0">Import </text><rect class="ep" height="8.0" width="96.0" x="0" y="32.0"/><text font-size="8" text-anchor="end" title="Import [urn:org:netkernel:lang:groovy]" x="95.0" y="38.0">Import </text></g><g transform="translate(907.34 274.42)"><g><path class="rspace cmSpace" d="m 101.0092879256966,11.758064516129032 c 15.91,-16.18 -20.29,-15.59 -32.95,-12.24 -12.76,-5.40 -29.99,-4.99 -36.40,0.41 -10.12,-4.90 -41.18,-5.60 -35.02,8.98 -12.76,3.58 -12.48,17.39 3.19,21.55 -9.65,14.45 17.44,16.40 31.00,10.79 3.92,6.27 34.95,9.53 41.51,-0.74 15.91,5.39 48.24,-2.82 28.34,-10.79 14.27,-5.11 19.40,-14.35 0.33,-17.95 l 0.0,0.0 z" entity="fo/x" style="fill-opacity: 0.5"/></g><g filter="url(#fga4-i2"><text font-size="10" font-weight="bold" text-anchor="middle" x="50.0" y="-2">+PKS Position Delta </text><text font-size="10" font-weight="bold" text-anchor="middle" x="50.0" y="8">Cache Rootspace</text></g><text class="cmSpace" entity="fo/x" font-size="10" font-weight="bold" text-anchor="middle" x="50.0" y="-2">+PKS Position Delta </text><text class="cmSpace" entity="fo/x" font-size="10" font-weight="bold" text-anchor="middle" x="50.0" y="8">Cache Rootspace</text><rect class="eplinked" height="8.0" width="96.0" x="0" y="14.0"/><path class="eplinked" d="M 96.0,14.0 A 4.0,4.0 180 0,1 96.0,22.0 Z"/><text font-size="8" text-anchor="end" title="MapperOverlay" x="95.0" y="20.0">MapperOverlay</text></g><g transform="translate(1070.97 264.17)"><g><path class="space cmSpace" d="m 101.0092879256966,26.455645161290327 c 15.91,-36.40 -20.29,-35.09 -32.95,-27.54 -12.76,-12.16 -29.99,-11.24 -36.40,0.92 -10.12,-11.03 -41.18,-12.59 -35.02,20.21 -12.76,8.06 -12.48,39.12 3.19,48.48 -9.65,32.51 17.44,36.91 31.00,24.28 3.92,14.10 34.95,21.45 41.51,-1.67 15.91,12.12 48.24,-6.35 28.34,-24.28 14.27,-11.50 19.40,-32.30 0.33,-40.39 l 0.0,0.0 z" entity="fo/I" style="fill-opacity: 0.5"/></g><g filter="url(#fga4-i2"><text font-size="10" font-weight="bold" text-anchor="middle" x="50.0" y="-2">PKS Position Delta Cache</text><text font-size="10" font-weight="bold" text-anchor="middle" x="50.0" y="8"> Rootspace /mapper/space</text></g><text class="cmSpace" entity="fo/I" font-size="10" font-weight="bold" text-anchor="middle" x="50.0" y="-2">PKS Position Delta Cache</text><text class="cmSpace" entity="fo/I" font-size="10" font-weight="bold" text-anchor="middle" x="50.0" y="8"> Rootspace /mapper/space</text><rect class="ep" height="8.0" width="96.0" x="0" y="14.0"/><text font-size="8" text-anchor="end" title="Fileset" x="95.0" y="20.0">Fileset</text><rect class="ep" height="8.0" width="96.0" x="0" y="23.0"/><text font-size="8" text-anchor="end" title="Import [urn:org:netkernel:mod:pds]" x="95.0" y="29.0">Import </text><rect class="ep" height="8.0" width="96.0" x="0" y="32.0"/><text font-size="8" text-anchor="end" title="Import [urn:org:netkernel:mod:pds:rdbms:local]" x="95.0" y="38.0">Import </text><rect class="ep" height="8.0" width="96.0" x="0" y="41.0"/><text font-size="8" text-anchor="end" title="Literal" x="95.0" y="47.0">Literal</text><rect class="ep" height="8.0" width="96.0" x="0" y="50.0"/><text font-size="8" text-anchor="end" title="Import [urn:org:netkernel:lang:groovy]" x="95.0" y="56.0">Import </text><rect class="ep" height="8.0" width="96.0" x="0" y="59.0"/><text font-size="8" text-anchor="end" title="Import [urn:org:netkernel:lang:dpml]" x="95.0" y="65.0">Import </text><rect class="ep" height="8.0" width="96.0" x="0" y="68.0"/><text font-size="8" text-anchor="end" title="Import [urn:org:netkernel:xml:saxon]" x="95.0" y="74.0">Import </text><rect class="ep" height="8.0" width="96.0" x="0" y="77.0"/><text font-size="8" text-anchor="end" title="Import [urn:org:netkernel:lang:xrl]" x="95.0" y="83.0">Import </text></g><g transform="translate(359.05 192.50)"><g><path class="rspace cmSpace" d="m 101.0092879256966,11.758064516129032 c 15.91,-16.18 -20.29,-15.59 -32.95,-12.24 -12.76,-5.40 -29.99,-4.99 -36.40,0.41 -10.12,-4.90 -41.18,-5.60 -35.02,8.98 -12.76,3.58 -12.48,17.39 3.19,21.55 -9.65,14.45 17.44,16.40 31.00,10.79 3.92,6.27 34.95,9.53 41.51,-0.74 15.91,5.39 48.24,-2.82 28.34,-10.79 14.27,-5.11 19.40,-14.35 0.33,-17.95 l 0.0,0.0 z" entity="fo/8" style="fill-opacity: 0.5"/></g><g filter="url(#fga4-i2"><text font-size="10" font-weight="bold" text-anchor="middle" x="50.0" y="-2">+PKS Position Posting </text><text font-size="10" font-weight="bold" text-anchor="middle" x="50.0" y="8">Rootspace</text></g><text class="cmSpace" entity="fo/8" font-size="10" font-weight="bold" text-anchor="middle" x="50.0" y="-2">+PKS Position Posting </text><text class="cmSpace" entity="fo/8" font-size="10" font-weight="bold" text-anchor="middle" x="50.0" y="8">Rootspace</text><rect class="eplinked" height="8.0" width="96.0" x="0" y="14.0"/><path class="eplinked" d="M 96.0,14.0 A 4.0,4.0 180 0,1 96.0,22.0 Z"/><text font-size="8" text-anchor="end" title="MapperOverlay" x="95.0" y="20.0">MapperOverlay</text></g><g transform="translate(730.25 185.50)"><g><path class="space cmSpace" d="m 101.0092879256966,15.873387096774195 c 15.91,-21.84 -20.29,-21.05 -32.95,-16.53 -12.76,-7.29 -29.99,-6.74 -36.40,0.55 -10.12,-6.62 -41.18,-7.56 -35.02,12.13 -12.76,4.83 -12.48,23.47 3.19,29.09 -9.65,19.50 17.44,22.14 31.00,14.57 3.92,8.46 34.95,12.87 41.51,-1.00 15.91,7.27 48.24,-3.81 28.34,-14.57 14.27,-6.90 19.40,-19.38 0.33,-24.23 l 0.0,0.0 z" entity="fo/t" style="fill-opacity: 0.5"/></g><g filter="url(#fga4-i2"><text font-size="10" font-weight="bold" text-anchor="middle" x="50.0" y="-2">PKS Position Posting </text><text font-size="10" font-weight="bold" text-anchor="middle" x="50.0" y="8">Rootspace /mapper/space</text></g><text class="cmSpace" entity="fo/t" font-size="10" font-weight="bold" text-anchor="middle" x="50.0" y="-2">PKS Position Posting </text><text class="cmSpace" entity="fo/t" font-size="10" font-weight="bold" text-anchor="middle" x="50.0" y="8">Rootspace /mapper/space</text><rect class="ep" height="8.0" width="96.0" x="0" y="14.0"/><text font-size="8" text-anchor="end" title="Fileset" x="95.0" y="20.0">Fileset</text><rect class="eplinked" height="8.0" width="96.0" x="0" y="23.0"/><path class="eplinked" d="M 96.0,23.0 A 4.0,4.0 180 0,1 96.0,31.0 Z"/><text font-size="8" text-anchor="end" title="Import [urn:uk:co:rsbatechnology:pks:position]" x="95.0" y="29.0">Import </text><rect class="eplinked" height="8.0" width="96.0" x="0" y="32.0"/><path class="eplinked" d="M 96.0,32.0 A 4.0,4.0 180 0,1 96.0,40.0 Z"/><text font-size="8" text-anchor="end" title="Import [urn:uk:co:rsbatechnology:pks:delta]" x="95.0" y="38.0">Import </text><rect class="ep" height="8.0" width="96.0" x="0" y="41.0"/><text font-size="8" text-anchor="end" title="Import [urn:org:netkernel:lang:groovy]" x="95.0" y="47.0">Import </text></g><g transform="translate(891.28 181.42)"><g><path class="rspace cmSpace" d="m 101.0092879256966,11.758064516129032 c 15.91,-16.18 -20.29,-15.59 -32.95,-12.24 -12.76,-5.40 -29.99,-4.99 -36.40,0.41 -10.12,-4.90 -41.18,-5.60 -35.02,8.98 -12.76,3.58 -12.48,17.39 3.19,21.55 -9.65,14.45 17.44,16.40 31.00,10.79 3.92,6.27 34.95,9.53 41.51,-0.74 15.91,5.39 48.24,-2.82 28.34,-10.79 14.27,-5.11 19.40,-14.35 0.33,-17.95 l 0.0,0.0 z" entity="fo/u" style="fill-opacity: 0.5"/></g><g filter="url(#fga4-i2"><text font-size="10" font-weight="bold" text-anchor="middle" x="50.0" y="-2">+PKS Position Cache </text><text font-size="10" font-weight="bold" text-anchor="middle" x="50.0" y="8">Rootspace</text></g><text class="cmSpace" entity="fo/u" font-size="10" font-weight="bold" text-anchor="middle" x="50.0" y="-2">+PKS Position Cache </text><text class="cmSpace" entity="fo/u" font-size="10" font-weight="bold" text-anchor="middle" x="50.0" y="8">Rootspace</text><rect class="eplinked" height="8.0" width="96.0" x="0" y="14.0"/><path class="eplinked" d="M 96.0,14.0 A 4.0,4.0 180 0,1 96.0,22.0 Z"/><text font-size="8" text-anchor="end" title="MapperOverlay" x="95.0" y="20.0">MapperOverlay</text></g><g transform="translate(1070.21 151.33)"><g><path class="space cmSpace" d="m 101.0092879256966,29.101209677419355 c 15.91,-40.04 -20.29,-38.59 -32.95,-30.30 -12.76,-13.37 -29.99,-12.36 -36.40,1.01 -10.12,-12.14 -41.18,-13.85 -35.02,22.24 -12.76,8.86 -12.48,43.03 3.19,53.33 -9.65,35.76 17.44,40.60 31.00,26.71 3.92,15.51 34.95,23.59 41.51,-1.84 15.91,13.33 48.24,-6.99 28.34,-26.71 14.27,-12.65 19.40,-35.53 0.33,-44.43 l 0.0,0.0 z" entity="fo/h" style="fill-opacity: 0.5"/></g><g filter="url(#fga4-i2"><text font-size="10" font-weight="bold" text-anchor="middle" x="50.0" y="-2">PKS Position Cache </text><text font-size="10" font-weight="bold" text-anchor="middle" x="50.0" y="8">Rootspace /mapper/space</text></g><text class="cmSpace" entity="fo/h" font-size="10" font-weight="bold" text-anchor="middle" x="50.0" y="-2">PKS Position Cache </text><text class="cmSpace" entity="fo/h" font-size="10" font-weight="bold" text-anchor="middle" x="50.0" y="8">Rootspace /mapper/space</text><rect class="ep" height="8.0" width="96.0" x="0" y="14.0"/><text font-size="8" text-anchor="end" title="Fileset" x="95.0" y="20.0">Fileset</text><rect class="ep" height="8.0" width="96.0" x="0" y="23.0"/><text font-size="8" text-anchor="end" title="Literal" x="95.0" y="29.0">Literal</text><rect class="ep" height="8.0" width="96.0" x="0" y="32.0"/><text font-size="8" text-anchor="end" title="Import [urn:org:netkernel:mod:pds]" x="95.0" y="38.0">Import </text><rect class="ep" height="8.0" width="96.0" x="0" y="41.0"/><text font-size="8" text-anchor="end" title="Import [urn:org:netkernel:mod:pds:rdbms:local]" x="95.0" y="47.0">Import </text><rect class="ep" height="8.0" width="96.0" x="0" y="50.0"/><text font-size="8" text-anchor="end" title="Literal" x="95.0" y="56.0">Literal</text><rect class="ep" height="8.0" width="96.0" x="0" y="59.0"/><text font-size="8" text-anchor="end" title="Import [urn:org:netkernel:lang:groovy]" x="95.0" y="65.0">Import </text><rect class="ep" height="8.0" width="96.0" x="0" y="68.0"/><text font-size="8" text-anchor="end" title="Import [urn:org:netkernel:lang:xrl]" x="95.0" y="74.0">Import </text><rect class="ep" height="8.0" width="96.0" x="0" y="77.0"/><text font-size="8" text-anchor="end" title="Import [urn:org:netkernel:xml:saxon]" x="95.0" y="83.0">Import </text><rect class="ep" height="8.0" width="96.0" x="0" y="86.0"/><text font-size="8" text-anchor="end" title="Import [urn:org:netkernel:lang:dpml]" x="95.0" y="92.0">Import </text></g><g transform="translate(50.00 660.00)"><g><path class="rspace cmSpace" d="m 101.0092879256966,11.758064516129032 c 15.91,-16.18 -20.29,-15.59 -32.95,-12.24 -12.76,-5.40 -29.99,-4.99 -36.40,0.41 -10.12,-4.90 -41.18,-5.60 -35.02,8.98 -12.76,3.58 -12.48,17.39 3.19,21.55 -9.65,14.45 17.44,16.40 31.00,10.79 3.92,6.27 34.95,9.53 41.51,-0.74 15.91,5.39 48.24,-2.82 28.34,-10.79 14.27,-5.11 19.40,-14.35 0.33,-17.95 l 0.0,0.0 z" entity="fo/O" style="fill-opacity: 0.5"/></g><g filter="url(#fga4-i2"><text font-size="10" font-weight="bold" text-anchor="middle" x="50.0" y="8">+PKS Diary Rootspace</text></g><text class="cmSpace" entity="fo/O" font-size="10" font-weight="bold" text-anchor="middle" x="50.0" y="8">+PKS Diary Rootspace</text><rect class="ep" height="8.0" width="96.0" x="0" y="14.0"/><text font-size="8" text-anchor="end" title="Fileset" x="95.0" y="20.0">Fileset</text><rect class="ep" height="8.0" width="96.0" x="0" y="23.0"/><text font-size="8" text-anchor="end" title="Fileset" x="95.0" y="29.0">Fileset</text></g></g></svg>